# xmcd
#
# Track frame offsets:
#	150
#	15543
#	31734
#	46194
#	61893
#	77391
#	92240
#	108294
#	123182
#	139935
#	155706
#	174169
#
# Disc length: 2507 seconds
#
# Revision: 0
# Processed by: cddbd v1.5.2PL0 Copyright (c) Steve Scherf et al.
# Submitted via: dBpowerAMP V4.0
#
DISCID=8709c90c
DTITLE=Adriano Reis and Adriel - Chegou pra ficar
DYEAR=2005
DGENRE=Country
TTITLE0=Chegou pra ficar
TTITLE1=www volta pra mim
TTITLE2=Cala a boca e me beija
TTITLE3=Levantando o poeirão
TTITLE4=Eu vou dar um tempo
TTITLE5=Preso a esse amor
TTITLE6=Tô quase pirado
TTITLE7=A vida é pra festejar
TTITLE8=Bem que eu tentei
TTITLE9=Sem ela é só cachaça
TTITLE10=Abandonado
TTITLE11=Se ainda existe amor
EXTD=
EXTT0=
EXTT1=
EXTT2=
EXTT3=
EXTT4=
EXTT5=
EXTT6=
EXTT7=
EXTT8=
EXTT9=
EXTT10=
EXTT11=
PLAYORDER=
